<svg width="32" height="32" viewBox="0 0 32 32" fill="none" xmlns="http://www.w3.org/2000/svg">
<g id="radix-icons:accessibility">
<path id="Vector" fill-rule="evenodd" clip-rule="evenodd" d="M1.87097 16C1.87097 12.2527 3.35957 8.65893 6.00928 6.00922C8.65899 3.3595 12.2528 1.87091 16 1.87091C19.7473 1.87091 23.3411 3.3595 25.9908 6.00922C28.6405 8.65893 30.1291 12.2527 30.1291 16C30.1291 19.7472 28.6405 23.341 25.9908 25.9907C23.3411 28.6405 19.7473 30.129 16 30.129C12.2528 30.129 8.65899 28.6405 6.00928 25.9907C3.35957 23.341 1.87097 19.7472 1.87097 16ZM16 3.89758C12.7903 3.89758 9.71199 5.17265 7.44235 7.44229C5.17271 9.71193 3.89764 12.7902 3.89764 16C3.89764 19.2097 5.17271 22.288 7.44235 24.5577C9.71199 26.8273 12.7903 28.1024 16 28.1024C19.2098 28.1024 22.2881 26.8273 24.5577 24.5577C26.8274 22.288 28.1024 19.2097 28.1024 16C28.1024 12.7902 26.8274 9.71193 24.5577 7.44229C22.2881 5.17265 19.2098 3.89758 16 3.89758ZM15.2 19.2C15.0827 19.4709 13.5083 25.5146 13.5083 25.5146C13.4719 25.65 13.4092 25.7768 13.3237 25.8879C13.2383 25.9989 13.1318 26.0921 13.0104 26.162C12.7652 26.3032 12.4739 26.3413 12.2006 26.2677C12.0653 26.2313 11.9384 26.1686 11.8274 26.0831C11.7163 25.9977 11.6231 25.8912 11.5532 25.7698C11.412 25.5246 11.374 25.2333 11.4475 24.96C11.4475 24.96 13.3248 18.929 13.3248 17.6426V14.5088L9.14777 13.3888C9.0104 13.3545 8.88121 13.2933 8.76775 13.2086C8.65428 13.1239 8.55881 13.0175 8.4869 12.8956C8.41499 12.7736 8.36807 12.6386 8.34889 12.4983C8.32971 12.358 8.33865 12.2153 8.37518 12.0785C8.41172 11.9418 8.47511 11.8136 8.56168 11.7016C8.64825 11.5895 8.75625 11.4959 8.87939 11.426C9.00253 11.3561 9.13835 11.3115 9.27892 11.2947C9.4195 11.2778 9.56202 11.2892 9.69817 11.328C9.69817 11.328 13.2267 12.529 14.6048 12.529H17.3974C18.7734 12.529 22.2998 11.328 22.2998 11.328C22.5731 11.2544 22.8644 11.2924 23.1096 11.4337C23.3549 11.5749 23.534 11.8078 23.6075 12.081C23.6811 12.3543 23.643 12.6456 23.5018 12.8909C23.3606 13.1361 23.1277 13.3152 22.8544 13.3888L18.6603 14.513V17.6426C18.6603 18.929 20.5376 24.9536 20.5376 24.9536C20.6109 25.2269 20.5726 25.518 20.4312 25.7631C20.2898 26.0081 20.0568 26.187 19.7835 26.2602C19.5102 26.3335 19.219 26.2952 18.974 26.1538C18.7289 26.0124 18.5501 25.7794 18.4768 25.5061C18.4768 25.5061 16.896 19.4709 16.7872 19.2C16.6806 18.929 16.32 18.929 16.32 18.929H15.6651C15.6651 18.929 15.296 18.929 15.2 19.2ZM16 10.9226C16.6366 10.9226 17.247 10.6698 17.6971 10.2197C18.1472 9.76961 18.4 9.15916 18.4 8.52264C18.4 7.88612 18.1472 7.27568 17.6971 6.82559C17.247 6.3755 16.6366 6.12264 16 6.12264C15.3635 6.12264 14.7531 6.3755 14.303 6.82559C13.8529 7.27568 13.6 7.88612 13.6 8.52264C13.6 9.15916 13.8529 9.76961 14.303 10.2197C14.7531 10.6698 15.3635 10.9226 16 10.9226Z" fill="white"/>
</g>
</svg>
