<svg width="32" height="32" viewBox="0 0 32 32" fill="none" xmlns="http://www.w3.org/2000/svg">
<g id="uil:instagram">
<path id="Vector" d="M23.12 7.28008C22.8035 7.28008 22.4942 7.37392 22.2311 7.54973C21.968 7.72554 21.7629 7.97543 21.6418 8.26779C21.5207 8.56015 21.489 8.88186 21.5507 9.19223C21.6125 9.50259 21.7649 9.78769 21.9886 10.0115C22.2124 10.2352 22.4975 10.3876 22.8079 10.4493C23.1182 10.5111 23.4399 10.4794 23.7323 10.3583C24.0247 10.2372 24.2745 10.0321 24.4503 9.76899C24.6262 9.50588 24.72 9.19653 24.72 8.88008C24.72 8.45573 24.5514 8.04877 24.2514 7.74871C23.9513 7.44865 23.5443 7.28008 23.12 7.28008ZM29.2533 10.5067C29.2272 9.4005 29.02 8.30602 28.64 7.26675C28.3025 6.37681 27.7746 5.57136 27.0933 4.90675C26.4331 4.22332 25.6261 3.69898 24.7333 3.37341C23.6969 2.98163 22.6011 2.76969 21.4933 2.74675C20.08 2.66675 19.6267 2.66675 16 2.66675C12.3733 2.66675 11.92 2.66675 10.5067 2.74675C9.39887 2.76969 8.30312 2.98163 7.26666 3.37341C6.37597 3.70308 5.56981 4.22686 4.90666 4.90675C4.22323 5.56698 3.6989 6.374 3.37333 7.26675C2.98155 8.30321 2.76961 9.39895 2.74666 10.5067C2.66666 11.9201 2.66666 12.3734 2.66666 16.0001C2.66666 19.6267 2.66666 20.0801 2.74666 21.4934C2.76961 22.6012 2.98155 23.697 3.37333 24.7334C3.6989 25.6262 4.22323 26.4332 4.90666 27.0934C5.56981 27.7733 6.37597 28.2971 7.26666 28.6267C8.30312 29.0185 9.39887 29.2305 10.5067 29.2534C11.92 29.3334 12.3733 29.3334 16 29.3334C19.6267 29.3334 20.08 29.3334 21.4933 29.2534C22.6011 29.2305 23.6969 29.0185 24.7333 28.6267C25.6261 28.3012 26.4331 27.7768 27.0933 27.0934C27.7763 26.4302 28.3044 25.6243 28.64 24.7334C29.02 23.6941 29.2272 22.5997 29.2533 21.4934C29.2533 20.0801 29.3333 19.6267 29.3333 16.0001C29.3333 12.3734 29.3333 11.9201 29.2533 10.5067ZM26.8533 21.3334C26.8439 22.1798 26.6906 23.0184 26.4 23.8134C26.1871 24.3937 25.8452 24.918 25.4 25.3467C24.9673 25.7871 24.4441 26.1283 23.8667 26.3467C23.0717 26.6373 22.2331 26.7906 21.3867 26.8001C20.0533 26.8667 19.56 26.8801 16.0533 26.8801C12.5467 26.8801 12.0533 26.8801 10.72 26.8001C9.84113 26.8173 8.96593 26.682 8.13333 26.4001C7.58158 26.1698 7.08254 25.8296 6.66666 25.4001C6.22412 24.9717 5.88646 24.447 5.68 23.8667C5.35339 23.0606 5.1728 22.2028 5.14666 21.3334C5.14666 20.0001 5.06666 19.5067 5.06666 16.0001C5.06666 12.4934 5.06666 12.0001 5.14666 10.6667C5.15153 9.80138 5.30952 8.94371 5.61333 8.13341C5.84806 7.57063 6.20835 7.06896 6.66666 6.66675C7.07056 6.207 7.57151 5.84268 8.13333 5.60008C8.94586 5.30605 9.80259 5.15274 10.6667 5.14675C12 5.14675 12.4933 5.06675 16 5.06675C19.5067 5.06675 20 5.06675 21.3333 5.14675C22.1797 5.1562 23.0183 5.30949 23.8133 5.60008C24.4192 5.82495 24.9631 6.19054 25.4 6.66675C25.8356 7.07744 26.1768 7.57787 26.4 8.13341C26.6966 8.94526 26.85 9.80243 26.8533 10.6667C26.92 12.0001 26.9333 12.4934 26.9333 16.0001C26.9333 19.5067 26.92 20.0001 26.8533 21.3334ZM16 9.16008C14.6477 9.16272 13.3266 9.56612 12.2035 10.3193C11.0805 11.0725 10.2058 12.1417 9.69018 13.3918C9.17452 14.6418 9.04096 16.0167 9.30639 17.3427C9.57182 18.6686 10.2243 19.8861 11.1814 20.8414C12.1386 21.7966 13.3573 22.4468 14.6838 22.7096C16.0103 22.9725 17.3849 22.8362 18.634 22.3181C19.883 21.8 20.9505 20.9233 21.7015 19.7988C22.4525 18.6742 22.8533 17.3523 22.8533 16.0001C22.8551 15.1002 22.6789 14.2089 22.335 13.3774C21.991 12.5458 21.4861 11.7905 20.8492 11.1548C20.2122 10.5191 19.4559 10.0157 18.6237 9.67332C17.7915 9.33099 16.8999 9.15656 16 9.16008ZM16 20.4401C15.1218 20.4401 14.2634 20.1797 13.5333 19.6918C12.8031 19.2039 12.234 18.5105 11.898 17.6992C11.5619 16.8879 11.474 15.9952 11.6453 15.1339C11.8166 14.2726 12.2395 13.4815 12.8604 12.8605C13.4814 12.2396 14.2725 11.8167 15.1338 11.6454C15.9951 11.4741 16.8878 11.562 17.6991 11.8981C18.5104 12.2341 19.2038 12.8032 19.6917 13.5333C20.1796 14.2635 20.44 15.1219 20.44 16.0001C20.44 16.5831 20.3252 17.1605 20.102 17.6992C19.8789 18.2379 19.5518 18.7273 19.1396 19.1396C18.7273 19.5519 18.2378 19.879 17.6991 20.1021C17.1604 20.3252 16.5831 20.4401 16 20.4401Z" fill="#D1FAE5"/>
</g>
</svg>
