<svg width="21" height="20" viewBox="0 0 21 20" fill="none" xmlns="http://www.w3.org/2000/svg">
<g id="solar:shield-star-line-duotone">
<g id="Group">
<path id="Vector" opacity="0.5" d="M3 8.68091C3 6.01591 3 4.68341 3.315 4.23508C3.62917 3.78758 4.88167 3.35841 7.3875 2.50091L7.865 2.33758C9.17083 1.89008 9.82333 1.66675 10.5 1.66675C11.1767 1.66675 11.8292 1.89008 13.135 2.33758L13.6125 2.50091C16.1183 3.35841 17.3708 3.78758 17.685 4.23508C18 4.68341 18 6.01675 18 8.68091V9.99258C18 14.6909 14.4675 16.9717 12.2508 17.9392C11.65 18.2017 11.35 18.3334 10.5 18.3334C9.65 18.3334 9.35 18.2017 8.74917 17.9392C6.5325 16.9709 3 14.6917 3 9.99258V8.68091Z" stroke="#10B981" stroke-width="1.5"/>
<path id="Vector_2" d="M9.55083 6.96933C9.97333 6.21183 10.1842 5.8335 10.5 5.8335C10.8158 5.8335 11.0267 6.21183 11.4492 6.96933L11.5575 7.16516C11.6783 7.381 11.7383 7.4885 11.8317 7.55933C11.925 7.63016 12.0417 7.65683 12.275 7.70933L12.4867 7.75766C13.3067 7.94266 13.7167 8.036 13.8142 8.34933C13.9117 8.6635 13.6325 8.99016 13.0733 9.6435L12.9283 9.81266C12.77 9.9985 12.6908 10.091 12.655 10.206C12.6192 10.321 12.6308 10.4452 12.655 10.6927L12.6767 10.9177C12.7617 11.7902 12.8033 12.226 12.5483 12.4202C12.2933 12.6143 11.9092 12.4368 11.1417 12.0843L10.9425 11.9927C10.725 11.8927 10.6158 11.8418 10.5 11.8418C10.3842 11.8418 10.275 11.8918 10.0575 11.9918L9.85833 12.0835C9.09166 12.4377 8.70666 12.6143 8.45166 12.4202C8.19666 12.226 8.23833 11.7902 8.32333 10.9185L8.345 10.6927C8.36916 10.4452 8.38083 10.321 8.345 10.206C8.30916 10.091 8.23 9.99766 8.07166 9.81266L7.92666 9.6435C7.36833 8.99016 7.08833 8.6635 7.18583 8.34933C7.28333 8.036 7.69333 7.94266 8.51333 7.75766L8.725 7.70933C8.95833 7.65683 9.075 7.63016 9.16833 7.55933C9.26167 7.4885 9.32166 7.381 9.44166 7.16516L9.55083 6.96933Z" fill="#10B981"/>
</g>
</g>
</svg>
